<svg width="297" height="292" viewBox="0 0 297 292" fill="none" xmlns="http://www.w3.org/2000/svg">
<path d="M61.119 59.2059C45.845 59.2059 33.4631 46.9428 33.4631 31.8154C33.4631 16.6881 45.845 4.42493 61.119 4.42493C76.3929 4.42493 88.7749 16.6881 88.7749 31.8154C88.7749 46.9428 76.3929 59.2059 61.119 59.2059Z" stroke="#0E0E10" stroke-linecap="round" stroke-linejoin="round"/>
<path d="M61.1188 53.6916C48.9198 53.6916 39.0306 43.8972 39.0306 31.8153C39.0306 19.7334 48.9198 9.93903 61.1188 9.93903C73.3178 9.93903 83.2071 19.7334 83.2071 31.8153C83.2071 43.8972 73.3178 53.6916 61.1188 53.6916Z" stroke="#0E0E10" stroke-linecap="round" stroke-linejoin="round"/>
<path d="M61.1188 53.6916C48.9198 53.6916 39.0306 43.8972 39.0306 31.8153C39.0306 19.7334 48.9198 9.93903 61.1188 9.93903C73.3178 9.93903 83.2071 19.7334 83.2071 31.8153C83.2071 43.8972 73.3178 53.6916 61.1188 53.6916Z" stroke="#0E0E10" stroke-linecap="round" stroke-linejoin="round"/>
<path d="M68.9628 26.5365L61.1188 31.8151H41.8303" stroke="#0E0E10" stroke-width="2" stroke-linecap="round" stroke-linejoin="round"/>
<path d="M58.9775 31.815C58.9759 32.2348 59.1002 32.6456 59.3345 32.9955C59.5689 33.3453 59.9028 33.6183 60.2939 33.78C60.6851 33.9418 61.1159 33.9849 61.5318 33.9039C61.9477 33.823 62.33 33.6216 62.6303 33.3253C62.9306 33.0291 63.1353 32.6512 63.2186 32.2395C63.3019 31.8279 63.2599 31.4011 63.0981 31.0131C62.9362 30.6251 62.6618 30.2934 62.3094 30.06C61.9571 29.8266 61.5428 29.702 61.1189 29.702C60.5523 29.702 60.0089 29.9244 59.6075 30.3204C59.2061 30.7165 58.9796 31.2539 58.9775 31.815Z" fill="white" stroke="#0E0E10" stroke-linecap="round" stroke-linejoin="round"/>
<path d="M102.884 259.054C102.884 259.054 99.4501 263.767 98.3001 266.767C97.1501 269.768 98.8711 271.802 103.741 273.884C108.611 275.965 111.751 275.659 116.042 276.24C120.333 276.822 122.331 280.388 128.629 281.574C134.926 282.76 140.073 281.872 139.788 279.799C139.502 277.725 131.492 275.345 127.772 270.899C124.053 266.453 117.184 258.739 117.184 258.739L102.884 259.054Z" fill="white" stroke="#0E0E10" stroke-linecap="round" stroke-linejoin="round"/>
<path d="M102.884 259.054L106.057 258.991L107.841 260.892C108.087 261.38 108.307 261.881 108.5 262.392C109.555 265.094 111.18 270.891 108.167 275.29C106.644 274.972 105.159 274.501 103.733 273.884C98.8634 271.802 97.1502 269.729 98.2923 266.767C99.4344 263.806 102.884 259.054 102.884 259.054Z" fill="#9E9E9E" stroke="#0E0E10" stroke-linecap="round" stroke-linejoin="round"/>
<path d="M127.82 198.248C127.82 198.248 120.143 216.196 119.215 225.324C118.287 234.452 102.321 256.053 101.401 257.577C100.481 259.101 102.012 261.504 104.161 262.133C106.311 262.761 110.617 266.06 116.145 263.35C121.673 260.64 125.663 249.659 137.956 234.145C150.249 218.631 161.305 205.239 160.687 197.941C160.068 190.644 151.78 190.338 144.404 191.249C137.028 192.16 127.82 198.248 127.82 198.248Z" fill="#4F4F4F" stroke="#0E0E10" stroke-linecap="round" stroke-linejoin="round"/>
<path d="M135.497 266.123C135.497 266.123 143.175 274.033 145.943 275.251C148.711 276.468 160.687 280.419 160.687 282.556C160.687 284.692 149.321 286.2 144.713 286.2C140.105 286.2 131.23 282.854 128.431 281.943C125.631 281.032 116.455 279.508 113.076 277.073C109.697 274.638 115.225 264.905 115.225 264.905L135.497 266.123Z" fill="white" stroke="#0E0E10" stroke-linecap="round" stroke-linejoin="round"/>
<path d="M148.52 285.965C148.825 283.802 149.512 281.709 150.551 279.783C150.963 279.007 151.452 278.273 152.01 277.592C156.134 279.218 160.655 281.213 160.655 282.524C160.687 284.19 153.755 285.478 148.52 285.965Z" fill="#9E9E9E" stroke="#0E0E10" stroke-linecap="round" stroke-linejoin="round"/>
<path d="M120.5 265.188C121.045 266.349 121.439 267.574 121.673 268.833C122.371 272.643 121.88 277.05 121.324 280.137C118.152 279.351 114.829 278.306 113.076 277.042C109.697 274.615 115.225 264.874 115.225 264.874L120.5 265.188Z" fill="#9E9E9E" stroke="#0E0E10" stroke-linecap="round" stroke-linejoin="round"/>
<path d="M177.897 194.037C177.897 194.037 177.699 200.431 171.751 209.504C165.802 218.577 137.599 257.537 137.599 257.537C137.599 257.537 137.599 264.34 137.139 265.699C136.679 267.058 115.162 270.695 113.782 266.61C112.402 262.525 119.278 253.908 119.278 253.908L139.899 196.763C139.899 196.763 146.307 184.061 155.468 182.703C164.628 181.344 177.897 188.146 177.897 194.037Z" fill="#6B6B6B" stroke="#0E0E10" stroke-linecap="round" stroke-linejoin="round"/>
<path d="M4.24494 55.2783L26.8011 55.5454C26.8011 55.5454 28.9584 55.2783 29.4977 56.8808C29.4977 56.8808 35.1685 71.0198 35.4381 76.1256C35.7078 81.2314 34.3516 80.4066 36.5168 87.0834C38.682 93.7602 44.8842 109.541 48.4135 122.368C53.1325 139.649 54.3539 157.92 54.6553 175.72C54.7029 178.571 56.4319 203.149 51.9429 203.149C48.2152 203.149 23.9538 207.658 23.5414 201.099C21.8917 174.95 26.6584 149.405 17.49 123.971C13.9289 114.097 9.84433 103.665 6.82257 93.336C3.8008 83.0066 3.26941 72.2688 1.27076 61.6959C-0.0775337 54.4771 4.24494 55.2783 4.24494 55.2783Z" fill="#0E0E10" stroke="#0E0E10" stroke-linecap="round" stroke-linejoin="round"/>
<path d="M4.24488 55.2783L26.8011 55.5454C26.8011 55.5454 28.9583 55.2783 29.4977 56.8807C29.4977 56.8807 34.2087 68.6633 35.2398 74.586C35.9524 77.1862 36.1967 79.8904 35.9615 82.5745C35.4539 87.2169 34.1136 91.3643 27.4197 93.0296C21.6141 94.4592 14.4285 93.281 11.7398 89.487C8.956 87.429 9.47945 83.7292 7.77425 80.1395C5.07767 74.5231 3.99901 65.4349 1.83381 60.0934C1.60058 59.5422 1.33578 59.0045 1.0407 58.4831C1.36587 54.752 4.24488 55.2783 4.24488 55.2783Z" fill="#828282" stroke="#0E0E10" stroke-linecap="round" stroke-linejoin="round"/>
<path d="M8.61485 68.9619C10.8038 76.7698 9.48727 78.9378 11.6842 92.3856C13.8811 105.833 21.7568 121.017 24.8182 134.897C27.8796 148.777 26.571 197.8 26.1348 199.968C25.9659 201.123 25.9022 202.29 25.9444 203.456C24.4771 202.914 23.5651 202.16 23.5175 201.139C21.8678 174.989 26.6344 149.445 17.466 124.01C13.9049 114.136 9.82038 103.705 6.79861 93.3753C3.77684 83.046 3.25339 72.3081 1.24681 61.7353C0.453691 57.2972 1.73061 55.899 2.83304 55.4512V55.4984C5.32775 59.7258 7.27056 64.2498 8.61485 68.9619Z" fill="#696969" stroke="#0E0E10" stroke-linecap="round" stroke-linejoin="round"/>
<path d="M76.9893 269.179L77.2351 268.99V235.834H72.4209V214.877H90.2184V235.834H85.3884V269.564L127.955 282.996V286.334C127.955 287.345 127.55 288.314 126.828 289.028C126.107 289.743 125.128 290.144 124.108 290.144C123.088 290.144 122.11 289.743 121.388 289.028C120.667 288.314 120.262 287.345 120.262 286.334V285.855L84.6666 281.755V286.806C84.6666 287.691 84.3115 288.54 83.6794 289.166C83.0472 289.792 82.1899 290.144 81.2959 290.144C80.4019 290.144 79.5446 289.792 78.9124 289.166C78.2803 288.54 77.9251 287.691 77.9251 286.806V281.59L40.8946 285.855V286.334C40.8496 287.316 40.4243 288.242 39.7071 288.921C38.9899 289.6 38.0361 289.979 37.0441 289.979C36.052 289.979 35.0982 289.6 34.381 288.921C33.6638 288.242 33.2385 287.316 33.1935 286.334V282.996L76.9893 269.179Z" fill="#0E0E10" stroke="#0E0E10" stroke-linecap="round" stroke-linejoin="round"/>
<path d="M77.2273 268.99V236.015H85.4122V269.006H77.2194L77.2273 268.99Z" fill="white" stroke="#0E0E10" stroke-linecap="round" stroke-linejoin="round"/>
<path d="M24.5326 200.392H133.657C135.409 200.392 136.83 201.799 136.83 203.534V215.592C136.83 217.327 135.409 218.734 133.657 218.734H24.5326C22.7805 218.734 21.3601 217.327 21.3601 215.592V203.534C21.3601 201.799 22.7805 200.392 24.5326 200.392Z" fill="#0E0E10" stroke="#0E0E10" stroke-linecap="round" stroke-linejoin="round"/>
<path d="M131.794 96.3682C131.794 96.3682 125.298 98.387 123.069 99.1253C120.841 99.8637 113.417 107.208 113.417 107.208C113.417 107.208 104.51 85.1512 103.765 83.1325C103.019 81.1137 102.655 79.8177 102.655 79.8177C103.825 80.2143 105.089 80.251 106.281 79.923C107.473 79.5949 108.537 78.9174 109.333 77.9796C112.505 74.6726 108.405 68.0587 112.116 62.3559C115.828 56.6531 138.662 68.7892 139.217 74.6726C139.772 80.556 137.179 93.0534 131.794 96.3682Z" fill="white" stroke="#0E0E10" stroke-linecap="round" stroke-linejoin="round"/>
<path d="M150.907 62.5443C150.907 62.5443 150.535 67.5009 149.242 69.5275C147.949 71.5541 146.641 75.2224 147.568 76.8798C148.496 78.5372 151.835 80.3753 151.28 82.2134C150.725 84.0514 146.268 84.782 146.268 84.782L145.157 87.3584C145.157 87.3584 141.628 85.3397 138.471 86.2587C135.315 87.1777 129.565 86.0702 128.264 82.7632C126.963 79.4562 126.781 67.3202 127.891 59.0489C129.002 50.7775 132.721 46.9128 139.399 48.5388C146.077 50.1648 151.28 57.9649 150.907 62.5443Z" fill="white" stroke="#0E0E10" stroke-linecap="round" stroke-linejoin="round"/>
<path d="M141.502 72.5414C140.936 73.9661 141.014 75.3159 141.691 75.5623C142.368 75.8086 143.357 74.866 143.912 73.4198C144.467 71.9736 144.4 70.6453 143.734 70.3882C143.068 70.1311 142.08 71.1274 141.502 72.5414Z" fill="#0E0E10"/>
<path d="M128.97 36.6463C132.889 37.4112 136.702 38.6374 140.328 40.2989C146.672 43.2131 150.17 47.8319 155.738 47.6512C161.305 47.4705 163.161 49.6699 160.187 53.3461C157.213 57.0223 152.208 56.6609 152.208 56.6609C152.208 56.6609 156.666 60.8869 155.92 63.644C155.175 66.4012 152.026 65.8513 149.797 62.9057C147.569 59.96 145.713 55.9226 140.518 54.8228C135.323 53.7231 133.65 53.7153 133.65 53.7153C133.65 53.7153 139.59 58.3105 138.844 60.1486C138.099 61.9866 133.094 61.806 130.866 64.0132C128.637 66.2205 130.493 81.2943 132.349 83.3131C134.205 85.3318 136.806 84.6013 139.963 84.4128C143.119 84.2242 145.895 84.9705 145.158 87.3584C144.42 89.7463 141.62 101.537 139.392 102.283C137.163 103.029 128.566 102.833 119.683 91.2859C117.184 88.0339 121.586 75.9686 121.586 73.3921C121.586 70.8157 121.808 68.1214 121.182 65.6157C120.809 64.1468 119.5 62.7014 117.874 62.6857C115.63 62.6857 114.94 64.8066 114.528 66.6132C113.6 70.6586 116.574 74.1541 116.019 74.7039C115.463 75.2538 111.744 78.5686 108.595 79.6683C105.446 80.768 104.875 72.6852 103.392 66.4326C101.909 60.18 101.909 48.0518 109.333 40.511C114.107 35.633 121.8 35.2638 128.97 36.6463Z" fill="#0E0E10" stroke="#0E0E10" stroke-linecap="round" stroke-linejoin="round"/>
<path d="M137.892 89.2827C137.393 90.5552 137.694 91.8592 138.559 92.1891C139.423 92.519 140.533 91.7649 141.033 90.4924C141.533 89.2199 141.231 87.9238 140.359 87.5939C139.487 87.264 138.384 88.018 137.892 89.2827Z" fill="white"/>
<path d="M111.554 77.8031C107.605 73.8919 107.605 67.5507 111.554 63.6395C115.503 59.7284 121.906 59.7284 125.855 63.6395C129.804 67.5507 129.804 73.8919 125.855 77.8031C121.906 81.7143 115.503 81.7143 111.554 77.8031Z" fill="white" stroke="#0E0E10" stroke-linecap="round" stroke-linejoin="round"/>
<path d="M121.023 66.2205L124.988 35.8372C125.01 35.6795 124.997 35.5192 124.952 35.3665C124.907 35.2139 124.83 35.0723 124.726 34.9509C124.622 34.8296 124.494 34.7311 124.349 34.6619C124.204 34.5926 124.047 34.5542 123.886 34.549L117.827 34.2819C117.669 34.2766 117.512 34.3028 117.365 34.3589C117.218 34.4149 117.084 34.4997 116.971 34.6082C116.858 34.7167 116.768 34.8466 116.706 34.9903C116.645 35.134 116.613 35.2884 116.613 35.4445L116.978 66.032L121.023 66.2205Z" fill="#9146FF" stroke="#0E0E10" stroke-linecap="round" stroke-linejoin="round"/>
<path d="M118.707 76.8797C115.273 76.8797 112.489 74.1225 112.489 70.7213C112.489 67.3202 115.273 64.563 118.707 64.563C122.141 64.563 124.925 67.3202 124.925 70.7213C124.925 74.1225 122.141 76.8797 118.707 76.8797Z" fill="#9146FF" stroke="#0E0E10" stroke-linecap="round" stroke-linejoin="round"/>
<path d="M192.067 152.037H185.428C183.605 152.037 181.856 152.754 180.566 154.031C179.277 155.308 178.552 157.041 178.552 158.847V161.015H198.935V158.847C198.935 157.042 198.212 155.311 196.924 154.034C195.636 152.757 193.889 152.039 192.067 152.037Z" fill="#0E0E10" stroke="#0E0E10" stroke-linecap="round" stroke-linejoin="round"/>
<path d="M127.222 136.413C127.222 136.413 166.227 147.882 168.995 147.882C171.763 147.882 179.568 148.125 184.596 147.096C189.624 146.067 193.407 145.352 195.422 147.347C197.436 149.343 198.943 156.074 198.943 156.074C197.909 156.181 196.864 156.008 195.922 155.572C193.907 154.825 192.654 150.34 192.654 150.34C192.654 150.34 187.364 149.837 185.103 152.084C182.843 154.33 183.089 154.574 184.596 156.074C186.103 157.575 190.639 157.818 191.647 159.562C192.654 161.306 189.132 160.811 187.618 160.56C186.103 160.308 182.066 160.057 179.568 158.816C176.721 157.451 173.776 156.298 170.756 155.367C169.503 155.124 144.837 154.126 137.033 154.126C129.229 154.126 119.164 152.131 114.136 150.639C111.287 149.848 108.631 148.49 106.331 146.648C106.331 146.648 123.946 136.413 127.222 136.413Z" fill="white" stroke="#0E0E10" stroke-linecap="round" stroke-linejoin="round"/>
<path d="M198.28 145.548C198.28 145.548 194.553 142.673 190.825 142.673" stroke="#0E0E10" stroke-linecap="round" stroke-linejoin="round"/>
<path d="M199.105 143.09C196.916 141.172 194.152 140.019 191.237 139.806" stroke="#0E0E10" stroke-linecap="round" stroke-linejoin="round"/>
<path d="M108.095 111.238L117.906 131.181C117.906 131.181 120.42 130.679 120.928 132.179C121.289 133.145 121.896 134.002 122.688 134.669L127.217 136.413C127.217 136.413 122.934 139.649 117.398 144.386C111.862 149.122 107.841 149.884 107.841 149.884C107.841 149.884 97.7688 140.662 96.2619 130.443C94.755 120.224 103.82 106.752 108.095 111.238Z" fill="#9146FF" stroke="#0E0E10" stroke-linecap="round" stroke-linejoin="round"/>
<path d="M176.525 198.122C180.189 191.32 179.269 181.344 153.628 176.804C127.987 172.263 110.927 172.994 110.927 172.994L106.319 167.213C106.319 167.213 50.5864 173.63 49.6744 174.989C48.7623 176.348 50.174 186.772 51.0465 192.223C51.9189 197.674 52.7517 202.364 59.62 204.634C66.4884 206.904 97.3009 206.283 113.33 204.469C129.359 202.654 154.572 197.219 154.572 197.219" fill="#6B6B6B"/>
<path d="M176.525 198.122C180.189 191.32 179.269 181.344 153.628 176.804C127.987 172.263 110.927 172.994 110.927 172.994L106.319 167.213C106.319 167.213 50.5865 173.63 49.6744 174.989C48.7623 176.348 50.174 186.772 51.0465 192.223C51.9189 197.674 52.7517 202.364 59.62 204.634C66.4884 206.904 97.3009 206.283 113.33 204.469C129.359 202.654 154.572 197.219 154.572 197.219" stroke="#0E0E10" stroke-linecap="round" stroke-linejoin="round"/>
<path d="M160.94 206.464C159.976 207.65 158.935 208.773 157.823 209.826" stroke="#0E0E10" stroke-linecap="round" stroke-linejoin="round"/>
<path d="M88.3943 191.5C106.699 191.194 143.199 191.5 150.424 191.5C159.941 191.5 166.286 190.456 165.755 196.74C165.544 198.547 164.969 200.293 164.065 201.877" stroke="#0E0E10" stroke-linecap="round" stroke-linejoin="round"/>
<path d="M57.8912 179.977C57.8912 179.977 60.0088 183.119 59.4775 184.69C58.9461 186.261 53.1326 187.832 56.8364 189.929C60.5402 192.027 65.8224 189.929 65.8224 192.545C65.8224 195.161 63.1813 197.784 66.8852 197.784C70.589 197.784 75.3398 193.071 77.9888 192.027C79.6212 191.755 81.2746 191.626 82.9299 191.642" stroke="#0E0E10" stroke-linecap="round" stroke-linejoin="round"/>
<path d="M106.929 173.905C106.929 173.905 84.8094 178.775 74.3641 187.596" stroke="#0E0E10" stroke-linecap="round" stroke-linejoin="round"/>
<path d="M101.401 174.51C101.401 174.51 73.4441 179.073 62.0788 190.031" stroke="#0E0E10" stroke-linecap="round" stroke-linejoin="round"/>
<path d="M104.217 79.0633C104.217 79.0633 113.282 100.272 115.797 111.968C118.311 123.664 113.528 129.163 111.522 134.897C109.515 140.631 102.964 155.32 102.964 155.32C102.964 155.32 107.992 161.8 108.516 165.791C109.039 169.781 107.762 169.278 90.393 174.259C78.5442 177.62 66.2225 179.053 53.9097 178.5C50.3883 178.249 48.3579 175.507 47.6203 173.512C46.8827 171.517 46.6131 151.581 49.3811 136.374C52.149 121.166 62.7212 98.9916 77.8222 88.5208C92.9231 78.05 101.957 77.3195 104.217 79.0633Z" fill="white" stroke="#0E0E10" stroke-linecap="round" stroke-linejoin="round"/>
<path d="M104.217 79.0632C104.217 79.0632 113.282 100.272 115.796 111.968C117.311 119.038 116.169 123.829 114.591 127.788L97.88 78.7176C101.14 78.0499 103.273 78.3406 104.217 79.0632Z" fill="#9146FF" stroke="#0E0E10" stroke-linecap="round" stroke-linejoin="round"/>
<path d="M62.5941 122.596C61.6349 122.728 60.6667 122.779 59.6992 122.75" stroke="#0E0E10" stroke-linecap="round" stroke-linejoin="round"/>
<path d="M82.2157 111.607C82.2157 111.607 75.0777 118.92 66.512 121.7" stroke="#0E0E10" stroke-linecap="round" stroke-linejoin="round"/>
<path d="M78.8214 122.376C78.8214 122.376 70.573 133.137 59.3266 134.999" stroke="#0E0E10" stroke-linecap="round" stroke-linejoin="round"/>
<path d="M84.8173 108.638C80.048 110.477 74.862 110.99 69.8195 110.122" stroke="#0E0E10" stroke-linecap="round" stroke-linejoin="round"/>
<path d="M70.3987 159.067C68.9898 160.231 67.6648 161.491 66.4331 162.837" stroke="#0E0E10" stroke-linecap="round" stroke-linejoin="round"/>
<path d="M90.8132 149.476C84.3267 150.764 78.1903 153.401 72.8095 157.213" stroke="#0E0E10" stroke-linecap="round" stroke-linejoin="round"/>
<path d="M103.582 135.635C110.09 138.041 116.846 139.73 123.728 140.67C134.117 141.927 152.05 142.823 153.073 142.776C154.096 142.728 166.159 137.167 166.159 137.167C166.159 137.167 171.481 132.674 173.741 132.564C176.002 132.454 181.823 132.933 182.378 133.907C182.934 134.881 180.435 135.478 180.435 135.478L174.883 135.737C173.377 135.808 170.061 140.207 170.061 140.207C170.061 140.207 175.55 139.202 177.564 139.107C179.579 139.013 184.004 142.045 184.044 142.791C184.084 143.537 182.83 143.844 181.577 143.907C180.324 143.97 176.7 142.139 176.7 142.139L170.751 144.166C170.751 144.166 176.414 146.648 177.263 148.604C178.111 150.56 178.976 153.011 178.976 153.011C178.976 153.011 178.786 154.267 176.739 153.615C174.693 152.964 173.781 149.767 173.781 149.767L167.65 148.054C167.65 148.054 171.806 150.505 172.116 151.738C172.425 152.971 173.313 155.776 172.306 155.823C171.299 155.87 168.61 152.257 168.61 152.257L164.01 150.976L157.728 151.275C156.205 151.302 154.683 151.205 153.176 150.984C140.255 153.293 127.206 154.827 114.099 155.579C94.7392 156.498 87.2681 153.105 82.0414 149.115C76.8148 145.124 88.1881 135.596 92.463 135.392C96.7379 135.188 103.582 135.635 103.582 135.635Z" fill="white" stroke="#0E0E10" stroke-linecap="round" stroke-linejoin="round"/>
<path d="M99.1092 89.9269C99.1092 89.9269 105.676 95.3626 106.104 104.325C106.533 113.288 102.361 131.197 102.361 131.197L103.011 134.166L106.12 136.012C106.12 136.012 103.582 140.875 94.2236 145.305C84.8649 149.735 76.664 151.628 75.0778 150.701C73.4916 149.774 75.8313 140.191 75.5061 128.228C75.3054 117.855 76.7616 107.516 79.8206 97.5934C82.0255 91.003 91.1939 87.8218 93.9698 87.9396" fill="#9146FF"/>
<path d="M99.1092 89.9269C99.1092 89.9269 105.676 95.3626 106.104 104.325C106.533 113.288 102.361 131.197 102.361 131.197L103.011 134.166L106.12 136.012C106.12 136.012 103.582 140.875 94.2236 145.305C84.8649 149.735 76.664 151.628 75.0778 150.701C73.4916 149.774 75.8313 140.191 75.5061 128.228C75.3054 117.855 76.7616 107.516 79.8206 97.5934C82.0255 91.003 91.1939 87.8218 93.9698 87.9396" stroke="#0E0E10" stroke-linecap="round" stroke-linejoin="round"/>
<path d="M103.011 134.159C103.011 134.159 95.5163 140.749 89.5283 141.527" stroke="#0E0E10" stroke-linecap="round" stroke-linejoin="round"/>
<path d="M169.72 130.789L160.615 135.706" stroke="#0E0E10" stroke-linecap="round" stroke-linejoin="round"/>
<path d="M167.238 128.739L158.965 133.247" stroke="#0E0E10" stroke-linecap="round" stroke-linejoin="round"/>
<path d="M192.253 24.1881L143.786 24.1881C141.201 24.1881 139.106 22.1132 139.106 19.5536V5.63452C139.106 3.07497 141.201 1.00004 143.786 1.00004L192.253 1.00004C194.837 1.00004 196.932 3.07497 196.932 5.63452V19.5536C196.932 22.1132 194.837 24.1881 192.253 24.1881Z" fill="#0E0E10" stroke="#0E0E10" stroke-miterlimit="10"/>
<path d="M152.922 18.6658C149.352 18.6658 146.458 15.7996 146.458 12.264C146.458 8.72833 149.352 5.86212 152.922 5.86212C156.492 5.86212 159.386 8.72833 159.386 12.264C159.386 15.7996 156.492 18.6658 152.922 18.6658Z" fill="#9146FF"/>
<path d="M148.267 11.3135C148.269 10.764 148.461 10.2318 148.809 9.80445C149.158 9.37707 149.643 9.07997 150.185 8.96203C150.727 8.84409 151.293 8.91235 151.791 9.15556C152.288 9.39877 152.687 9.80245 152.922 10.3002C153.157 9.80245 153.556 9.39877 154.054 9.15556C154.551 8.91235 155.117 8.84409 155.659 8.96203C156.201 9.07997 156.686 9.37707 157.035 9.80445C157.384 10.2318 157.575 10.764 157.578 11.3135C157.581 11.7323 157.472 12.1445 157.261 12.5075C156.214 14.6912 152.922 17.0948 152.922 17.0948C152.922 17.0948 149.631 14.6912 148.584 12.5075C148.377 12.1427 148.268 11.7317 148.267 11.3135Z" fill="#0E0E10" stroke="#0E0E10" stroke-miterlimit="10"/>
<path d="M167.957 18.6658C164.387 18.6658 161.493 15.7996 161.493 12.264C161.493 8.72833 164.387 5.86212 167.957 5.86212C171.527 5.86212 174.421 8.72833 174.421 12.264C174.421 15.7996 171.527 18.6658 167.957 18.6658Z" fill="#808080"/>
<path d="M162.969 8.00677L164.111 6.91492L168.14 11.0545L172.177 6.91492L173.319 8.00677L169.242 12.1856L173.319 16.3645L172.177 17.4564L168.14 13.3168L164.111 17.4564L162.969 16.3645L167.037 12.1856L162.969 8.00677Z" fill="#0E0E10"/>
<path d="M183.01 18.6658C179.44 18.6658 176.546 15.7996 176.546 12.264C176.546 8.72833 179.44 5.86212 183.01 5.86212C186.58 5.86212 189.474 8.72833 189.474 12.264C189.474 15.7996 186.58 18.6658 183.01 18.6658Z" fill="#808080"/>
<path d="M178.022 8.00677L179.164 6.91492L183.193 11.0545L187.222 6.91492L188.364 8.00677L184.295 12.1856L188.364 16.3645L187.222 17.4564L183.193 13.3168L179.164 17.4564L178.022 16.3645L182.09 12.1856L178.022 8.00677Z" fill="#0E0E10"/>
<path d="M158.974 24.0859L155.405 29.1917L159.767 29.9772L154.215 39.0105L164.129 28.7989L162.543 27.2279L166.905 22.5149" fill="#0E0E10"/>
<path d="M249.23 164.942H212.501C211.796 164.942 211.121 164.665 210.622 164.172C210.124 163.678 209.844 163.009 209.844 162.311C209.844 161.613 210.124 160.944 210.622 160.45C211.121 159.957 211.796 159.68 212.501 159.68H249.23C250.199 159.68 251.155 159.458 252.024 159.031C252.892 158.605 253.649 157.985 254.235 157.22C254.821 156.456 255.22 155.567 255.402 154.624C255.583 153.682 255.542 152.71 255.282 151.785L242.251 105.543C242.144 105.206 242.106 104.852 242.141 104.501C242.175 104.149 242.28 103.809 242.45 103.499C242.62 103.189 242.851 102.915 243.129 102.696C243.408 102.476 243.728 102.313 244.071 102.219C244.414 102.124 244.773 102.098 245.126 102.144C245.48 102.189 245.82 102.304 246.127 102.482C246.435 102.66 246.703 102.898 246.916 103.181C247.129 103.464 247.282 103.786 247.366 104.129L260.397 150.371C260.88 152.078 260.957 153.871 260.622 155.612C260.288 157.353 259.551 158.993 258.469 160.405C257.387 161.816 255.99 162.96 254.387 163.748C252.784 164.535 251.019 164.944 249.23 164.942Z" fill="#828282" stroke="#0E0E10" stroke-linecap="round" stroke-linejoin="round"/>
<path d="M231.776 151.199L223.461 150.212L236.339 43.7209L244.655 44.7073L231.776 151.199Z" fill="white" stroke="#0E0E10" stroke-linecap="round" stroke-linejoin="round"/>
<path d="M230.79 41.7286L205.942 31.2578" stroke="#0E0E10" stroke-linecap="round" stroke-linejoin="round"/>
<path d="M220.749 149.083L203.824 154.841" stroke="#0E0E10" stroke-linecap="round" stroke-linejoin="round"/>
<path d="M244.678 44.7211C244.678 44.7211 259.446 96.9257 231.782 151.212L244.678 44.7211Z" fill="#0E0E10" stroke="#0E0E10" stroke-linecap="round" stroke-linejoin="round"/>
<path d="M184.781 155.838H189.651V157.904H184.781V155.838Z" fill="white" stroke="#0E0E10" stroke-linecap="round" stroke-linejoin="round"/>
<path d="M178.516 155.838H183.385V157.904H178.516V155.838Z" fill="white" stroke="#0E0E10" stroke-linecap="round" stroke-linejoin="round"/>
<path d="M172.258 155.838H177.128V157.904H172.258V155.838Z" fill="white" stroke="#0E0E10" stroke-linecap="round" stroke-linejoin="round"/>
<path d="M166.001 155.838H170.87V157.904H166.001V155.838Z" fill="white" stroke="#0E0E10" stroke-linecap="round" stroke-linejoin="round"/>
<path d="M159.743 155.838H164.612V157.904H159.743V155.838Z" fill="white" stroke="#0E0E10" stroke-linecap="round" stroke-linejoin="round"/>
<path d="M153.477 155.838H158.347V157.904H153.477V155.838Z" fill="white" stroke="#0E0E10" stroke-linecap="round" stroke-linejoin="round"/>
<path d="M147.22 155.838H152.089V157.904H147.22V155.838Z" fill="white" stroke="#0E0E10" stroke-linecap="round" stroke-linejoin="round"/>
<path d="M140.962 155.838H145.831V157.904H140.962V155.838Z" fill="white" stroke="#0E0E10" stroke-linecap="round" stroke-linejoin="round"/>
<path d="M134.791 157.425H192.435V161.345H134.791V157.425Z" fill="white" stroke="#0E0E10" stroke-linecap="round" stroke-linejoin="round"/>
<path d="M277.901 291H283.611L284.722 175.264H276.791L277.901 291Z" fill="white" stroke="#0E0E10" stroke-linecap="round" stroke-linejoin="round"/>
<path d="M123.513 291H129.224L130.334 175.264H122.403L123.513 291Z" fill="white" stroke="#0E0E10" stroke-linecap="round" stroke-linejoin="round"/>
<path d="M119.096 164.683H287.894V184.132H119.096V164.683Z" fill="#0E0E10" stroke="#0E0E10" stroke-linecap="round" stroke-linejoin="round"/>
<path d="M119.381 169.655H287.72V175.39H119.381V169.655Z" fill="#0E0E10"/>
<path d="M116.391 161.29H296V170.347H116.391V161.29Z" fill="white" stroke="#0E0E10" stroke-linecap="round" stroke-linejoin="round"/>
<path d="M264.053 253.131C264.053 253.131 280.709 226.573 282.295 210.541C283.881 194.509 271.675 204.532 271.675 204.532C271.675 204.532 288.878 143.412 275.22 139.406C261.563 135.4 253.433 209.567 253.433 209.567C253.433 209.567 243.821 184.015 239.268 192.027C234.716 200.039 244.82 242.629 244.82 242.629C244.82 242.629 233.717 229.605 232.678 237.617C231.639 245.629 243.297 262.667 243.297 262.667" fill="#9146FF"/>
<path d="M264.053 253.131C264.053 253.131 280.709 226.573 282.295 210.541C283.881 194.509 271.675 204.532 271.675 204.532C271.675 204.532 288.878 143.412 275.22 139.406C261.563 135.4 253.433 209.567 253.433 209.567C253.433 209.567 243.821 184.015 239.268 192.027C234.716 200.039 244.82 242.629 244.82 242.629C244.82 242.629 233.717 229.605 232.678 237.617C231.639 245.629 243.297 262.667 243.297 262.667" stroke="#0E0E10" stroke-miterlimit="10"/>
<path d="M232.693 249.117H273.666L268.55 290.701H237.817L232.693 249.117Z" fill="#0E0E10"/>
<path d="M246.82 248.592C246.82 248.592 239.784 237.843 240.177 230.536C240.569 223.23 246.042 235.526 246.042 235.526C246.042 235.526 241.347 210.958 246.82 206.354C252.293 201.75 253.464 228.622 253.464 228.622C253.464 228.622 265.587 176.045 272.231 187.582C278.874 199.12 263.24 227.906 263.24 227.906C263.24 227.906 268.321 218.307 269.105 227.521C269.89 236.735 265.973 248.971 265.973 248.971" fill="#9146FF"/>
<path d="M246.82 248.592C246.82 248.592 239.784 237.843 240.177 230.536C240.569 223.23 246.042 235.526 246.042 235.526C246.042 235.526 241.347 210.958 246.82 206.354C252.293 201.75 253.464 228.622 253.464 228.622C253.464 228.622 265.587 176.045 272.231 187.582C278.874 199.12 263.24 227.906 263.24 227.906C263.24 227.906 268.321 218.307 269.105 227.521C269.89 236.735 265.973 248.971 265.973 248.971" stroke="#0E0E10" stroke-miterlimit="10"/>
</svg>
