<svg width="98" height="13" viewBox="0 0 98 13" fill="none" xmlns="http://www.w3.org/2000/svg">
<path d="M6.1165 10.4351C6.1165 10.0174 5.94434 9.6943 5.6 9.46594C5.2617 9.23201 4.66667 9.03149 3.81489 8.8644C2.96915 8.6973 2.29558 8.49679 1.79417 8.26285C1.29881 8.02892 0.930313 7.75043 0.688673 7.42738C0.453074 7.10433 0.335275 6.72001 0.335275 6.27442C0.335275 5.53363 0.673571 4.90703 1.35016 4.3946C2.03279 3.88218 2.9027 3.62596 3.95987 3.62596C5.07141 3.62596 5.97152 3.89053 6.66019 4.41967C7.35491 4.9488 7.70227 5.62554 7.70227 6.44987H6.01683C6.01683 6.02656 5.8205 5.66174 5.42783 5.3554C5.04121 5.04906 4.55189 4.89589 3.95987 4.89589C3.34973 4.89589 2.87249 5.01842 2.52816 5.2635C2.18382 5.50857 2.01165 5.82883 2.01165 6.22429C2.01165 6.59747 2.17174 6.87875 2.49191 7.06812C2.81208 7.2575 3.389 7.43852 4.22265 7.61118C5.06235 7.78385 5.74196 7.98993 6.26149 8.22943C6.78101 8.46894 7.16462 8.75857 7.4123 9.09833C7.66602 9.43252 7.79288 9.8419 7.79288 10.3265C7.79288 11.1341 7.4425 11.783 6.74175 12.2731C6.04099 12.7577 5.13182 13 4.01424 13C3.22891 13 2.5342 12.8719 1.9301 12.6157C1.326 12.3595 0.85178 12.003 0.507443 11.5463C0.169148 11.084 0 10.5855 0 10.0508H1.67638C1.70658 10.5688 1.9301 10.9809 2.34693 11.2873C2.76979 11.588 3.32557 11.7384 4.01424 11.7384C4.64854 11.7384 5.15599 11.6215 5.53657 11.3875C5.92319 11.148 6.1165 10.8305 6.1165 10.4351Z" fill="white"/>
<path d="M12.2511 1.60411V3.79306H14.0816V4.98779H12.2511V10.5938C12.2511 10.9559 12.3327 11.2288 12.4958 11.4126C12.6589 11.5908 12.9368 11.6799 13.3294 11.6799C13.5228 11.6799 13.7886 11.6465 14.1269 11.5797V12.8329C13.6859 12.9443 13.257 13 12.8401 13C12.091 13 11.5262 12.7911 11.1456 12.3734C10.765 11.9557 10.5748 11.3625 10.5748 10.5938V4.98779H8.78964V3.79306H10.5748V1.60411H12.2511Z" fill="white"/>
<path d="M20.7871 5.17995C20.5333 5.14096 20.2585 5.12147 19.9625 5.12147C18.863 5.12147 18.1169 5.55313 17.7243 6.41645V12.8329H16.0479V3.79306H17.679L17.7061 4.8374C18.2559 4.02978 19.0352 3.62596 20.044 3.62596C20.3702 3.62596 20.6179 3.66495 20.7871 3.74293V5.17995Z" fill="white"/>
<path d="M26.2239 13C24.8949 13 23.8136 12.599 22.9799 11.7969C22.1463 10.9893 21.7295 9.91153 21.7295 8.56362V8.27956C21.7295 7.38282 21.9137 6.58355 22.2822 5.88175C22.6567 5.17438 23.1763 4.62296 23.8408 4.22751C24.5113 3.82648 25.2362 3.62596 26.0155 3.62596C27.2902 3.62596 28.2809 4.01307 28.9877 4.78728C29.6945 5.56148 30.0479 6.66988 30.0479 8.11247V8.75578H23.4058C23.43 9.64696 23.7109 10.3683 24.2485 10.9197C24.7922 11.4655 25.4809 11.7384 26.3146 11.7384C26.9066 11.7384 27.408 11.627 27.8188 11.4042C28.2296 11.1814 28.589 10.8862 28.8971 10.5186L29.921 11.2539C29.0995 12.418 27.8671 13 26.2239 13ZM26.0155 4.89589C25.3389 4.89589 24.7711 5.12425 24.312 5.58098C23.8529 6.03213 23.5689 6.6671 23.4602 7.48586H28.3715V7.36889C28.3232 6.58355 28.0936 5.97644 27.6828 5.54756C27.2721 5.11311 26.7163 4.89589 26.0155 4.89589Z" fill="white"/>
<path d="M38.0492 12.8329C37.9525 12.6547 37.874 12.3372 37.8136 11.8805C37.0343 12.6268 36.104 13 35.0227 13C34.0561 13 33.2617 12.7494 32.6395 12.2481C32.0233 11.7412 31.7152 11.1007 31.7152 10.3265C31.7152 9.38518 32.1018 8.65553 32.8751 8.13753C33.6544 7.61397 34.7478 7.35219 36.1553 7.35219H37.7864V6.64203C37.7864 6.10176 37.6112 5.67288 37.2608 5.3554C36.9105 5.03235 36.394 4.87082 35.7113 4.87082C35.1133 4.87082 34.6119 5.01007 34.2071 5.28856C33.8024 5.56705 33.6 5.90403 33.6 6.29949H31.9146C31.9146 5.84833 32.0867 5.41388 32.4311 4.99614C32.7814 4.57284 33.2526 4.23865 33.8447 3.99357C34.4427 3.7485 35.0982 3.62596 35.811 3.62596C36.9407 3.62596 37.8257 3.88775 38.466 4.41131C39.1064 4.92931 39.4386 5.64503 39.4628 6.55848V10.7192C39.4628 11.5491 39.5776 12.2091 39.8071 12.6992V12.8329H38.0492ZM35.2673 11.6549C35.7929 11.6549 36.2913 11.5296 36.7625 11.2789C37.2337 11.0283 37.575 10.7024 37.7864 10.3014V8.44666H36.4725C34.4186 8.44666 33.3916 9.00086 33.3916 10.1093C33.3916 10.5938 33.5668 10.9726 33.9172 11.2455C34.2675 11.5184 34.7176 11.6549 35.2673 11.6549Z" fill="white"/>
<path d="M43.6673 3.79306L43.7126 4.79563C44.4315 4.01585 45.4011 3.62596 46.6214 3.62596C47.9927 3.62596 48.926 4.11054 49.4214 5.07969C49.7476 4.64524 50.1704 4.29434 50.69 4.02699C51.2155 3.75964 51.8347 3.62596 52.5476 3.62596C54.6982 3.62596 55.7916 4.67588 55.8278 6.77571V12.8329H54.1515V6.86761C54.1515 6.22151 53.9914 5.73972 53.6712 5.42224C53.351 5.09919 52.8134 4.93766 52.0583 4.93766C51.436 4.93766 50.9195 5.11033 50.5087 5.45566C50.0979 5.79542 49.8593 6.25493 49.7929 6.83419V12.8329H48.1074V6.90938C48.1074 5.5949 47.4097 4.93766 46.0142 4.93766C44.9148 4.93766 44.1627 5.36932 43.7579 6.23265V12.8329H42.0816V3.79306H43.6673Z" fill="white"/>
<path d="M58.4013 12.0225C58.4013 11.7551 58.4859 11.5323 58.655 11.3541C58.8302 11.1759 59.09 11.0868 59.4343 11.0868C59.7786 11.0868 60.0384 11.1759 60.2136 11.3541C60.3948 11.5323 60.4854 11.7551 60.4854 12.0225C60.4854 12.2787 60.3948 12.4931 60.2136 12.6658C60.0384 12.8385 59.7786 12.9248 59.4343 12.9248C59.09 12.9248 58.8302 12.8385 58.655 12.6658C58.4859 12.4931 58.4013 12.2787 58.4013 12.0225Z" fill="white"/>
<path d="M62.5877 8.24614C62.5877 6.83698 62.929 5.71465 63.6116 4.87918C64.3003 4.0437 65.2397 3.62596 66.4298 3.62596C67.3842 3.62596 68.1726 3.95458 68.7948 4.61182V0H71.4227V12.8329H69.0576L68.9307 11.8721C68.2783 12.624 67.4386 13 66.4117 13C65.2578 13 64.3305 12.5823 63.6298 11.7468C62.9351 10.9057 62.5877 9.73886 62.5877 8.24614ZM65.2065 8.42159C65.2065 9.26821 65.3666 9.9171 65.6867 10.3683C66.0069 10.8194 66.4721 11.045 67.0822 11.045C67.8917 11.045 68.4626 10.7303 68.7948 10.1009V6.53342C68.4686 5.90403 67.9038 5.58933 67.1003 5.58933C65.8378 5.58933 65.2065 6.53342 65.2065 8.42159Z" fill="white"/>
<path d="M79.134 12.8329C79.0132 12.6157 78.9256 12.3455 78.8712 12.0225C78.2369 12.6742 77.4123 13 76.3974 13C75.4369 13 74.6395 12.7438 74.0052 12.2314C73.3769 11.7189 73.0628 11.0728 73.0628 10.2931C73.0628 9.33505 73.4464 8.59983 74.2136 8.0874C74.9868 7.57498 76.1014 7.31598 77.5573 7.31041H78.7625V6.79242C78.7625 6.37468 78.6447 6.04049 78.4091 5.78985C78.1795 5.5392 77.814 5.41388 77.3126 5.41388C76.8716 5.41388 76.5243 5.51135 76.2705 5.7063C76.0229 5.90124 75.899 6.16859 75.899 6.50835H73.2803C73.2803 5.98479 73.4554 5.50021 73.8058 5.05463C74.1562 4.60904 74.6516 4.26093 75.2919 4.01028C75.9323 3.75407 76.6511 3.62596 77.4485 3.62596C78.6567 3.62596 79.6142 3.90724 80.321 4.46979C81.0339 5.02678 81.3903 5.81213 81.3903 6.82584V10.7442C81.3963 11.602 81.5262 12.2509 81.7799 12.6909V12.8329H79.134ZM76.9683 11.1536C77.3549 11.1536 77.7113 11.0756 78.0375 10.9197C78.3638 10.7581 78.6054 10.5437 78.7625 10.2764V8.72237H77.7838C76.4729 8.72237 75.7752 9.1401 75.6906 9.97558L75.6815 10.1176C75.6815 10.4184 75.7963 10.6662 76.0259 10.8612C76.2554 11.0561 76.5696 11.1536 76.9683 11.1536Z" fill="white"/>
<path d="M86.5372 1.57069V3.79306H88.2136V5.56427H86.5372V10.0758C86.5372 10.41 86.6067 10.6495 86.7456 10.7943C86.8846 10.9392 87.1504 11.0116 87.543 11.0116C87.833 11.0116 88.0898 10.9921 88.3133 10.9531V12.7828C87.7998 12.9276 87.2712 13 86.7275 13C84.891 13 83.9547 12.145 83.9184 10.4351V5.56427H82.4867V3.79306H83.9184V1.57069H86.5372Z" fill="white"/>
<path d="M95.354 12.8329C95.2332 12.6157 95.1456 12.3455 95.0913 12.0225C94.457 12.6742 93.6324 13 92.6175 13C91.657 13 90.8595 12.7438 90.2252 12.2314C89.597 11.7189 89.2828 11.0728 89.2828 10.2931C89.2828 9.33505 89.6665 8.59983 90.4337 8.0874C91.2069 7.57498 92.3215 7.31598 93.7773 7.31041H94.9825V6.79242C94.9825 6.37468 94.8647 6.04049 94.6291 5.78985C94.3996 5.5392 94.0341 5.41388 93.5327 5.41388C93.0917 5.41388 92.7443 5.51135 92.4906 5.7063C92.2429 5.90124 92.1191 6.16859 92.1191 6.50835H89.5003C89.5003 5.98479 89.6755 5.50021 90.0259 5.05463C90.3763 4.60904 90.8716 4.26093 91.512 4.01028C92.1523 3.75407 92.8712 3.62596 93.6686 3.62596C94.8768 3.62596 95.8343 3.90724 96.5411 4.46979C97.2539 5.02678 97.6104 5.81213 97.6104 6.82584V10.7442C97.6164 11.602 97.7463 12.2509 98 12.6909V12.8329H95.354ZM93.1883 11.1536C93.575 11.1536 93.9314 11.0756 94.2576 10.9197C94.5838 10.7581 94.8255 10.5437 94.9825 10.2764V8.72237H94.0039C92.693 8.72237 91.9953 9.1401 91.9107 9.97558L91.9016 10.1176C91.9016 10.4184 92.0164 10.6662 92.246 10.8612C92.4755 11.0561 92.7896 11.1536 93.1883 11.1536Z" fill="white"/>
</svg>
